name D:\school\WTK\thesis\model\3dpredictsim\Results\batch_windlass\Pog_s1_tmt_aCst_d05_k800_WL20_ig24.mot
datacolumns 128
datarows 4
range 0.52277151 0.55413780
endheader
time	pelvis_tilt	pelvis_list	pelvis_rotation	pelvis_tx	pelvis_ty	pelvis_tz	hip_flexion_l	hip_adduction_l	hip_rotation_l	hip_flexion_r	hip_adduction_r	hip_rotation_r	knee_angle_l	knee_angle_r	ankle_angle_l	ankle_angle_r	subtalar_angle_l	subtalar_angle_r	tmt_angle_l	tmt_angle_r	mtp_angle_l	mtp_angle_r	lumbar_extension	lumbar_bending	lumbar_rotation	arm_flex_l	arm_add_l	arm_rot_l	arm_flex_r	arm_add_r	arm_rot_r	elbow_flex_l	elbow_flex_r	pro_sup_l	pro_sup_r	glut_med1_l/activation	glut_med2_l/activation	glut_med3_l/activation	glut_min1_l/activation	glut_min2_l/activation	glut_min3_l/activation	semimem_l/activation	semiten_l/activation	bifemlh_l/activation	bifemsh_l/activation	sar_l/activation	add_long_l/activation	add_brev_l/activation	add_mag1_l/activation	add_mag2_l/activation	add_mag3_l/activation	tfl_l/activation	pect_l/activation	grac_l/activation	glut_max1_l/activation	glut_max2_l/activation	glut_max3_l/activation	iliacus_l/activation	psoas_l/activation	quad_fem_l/activation	gem_l/activation	peri_l/activation	rect_fem_l/activation	vas_med_l/activation	vas_int_l/activation	vas_lat_l/activation	med_gas_l/activation	lat_gas_l/activation	soleus_l/activation	tib_post_l/activation	flex_dig_l/activation	flex_hal_l/activation	tib_ant_l/activation	per_brev_l/activation	per_long_l/activation	per_tert_l/activation	ext_dig_l/activation	ext_hal_l/activation	ercspn_l/activation	intobl_l/activation	extobl_l/activation	glut_med1_r/activation	glut_med2_r/activation	glut_med3_r/activation	glut_min1_r/activation	glut_min2_r/activation	glut_min3_r/activation	semimem_r/activation	semiten_r/activation	bifemlh_r/activation	bifemsh_r/activation	sar_r/activation	add_long_r/activation	add_brev_r/activation	add_mag1_r/activation	add_mag2_r/activation	add_mag3_r/activation	tfl_r/activation	pect_r/activation	grac_r/activation	glut_max1_r/activation	glut_max2_r/activation	glut_max3_r/activation	iliacus_r/activation	psoas_r/activation	quad_fem_r/activation	gem_r/activation	peri_r/activation	rect_fem_r/activation	vas_med_r/activation	vas_int_r/activation	vas_lat_r/activation	med_gas_r/activation	lat_gas_r/activation	soleus_r/activation	tib_post_r/activation	flex_dig_r/activation	flex_hal_r/activation	tib_ant_r/activation	per_brev_r/activation	per_long_r/activation	per_tert_r/activation	ext_dig_r/activation	ext_hal_r/activation	ercspn_r/activation	intobl_r/activation	extobl_r/activation	
          0.52277151	         -2.92198170	          1.27620598	         -5.43559433	          0.65346438	          0.85919267	          0.00131072	         31.18281772	          2.35332058	         -2.05073026	        -17.64376959	         -1.14278723	          8.19482600	        -18.98139239	         -9.85091057	         -1.07580174	         -0.92701761	         -0.75557721	         12.29891870	         -0.09674577	         -4.82165843	          0.60161492	         27.00888496	         -1.02961962	          0.39224423	          1.65022045	         -8.50491119	        -13.59457972	          6.49241348	          3.94221365	        -13.46918033	         14.53050693	         18.98837213	         33.54025762	         86.51662706	         86.51662706	          0.05000092	          0.05000026	          0.05000116	          0.05000029	          0.05000029	          0.05000073	          0.05871286	          0.05871287	          0.09591401	          0.05000088	          0.05000047	          0.11110131	          0.14683555	          0.15112332	          0.16433016	          0.12138163	          0.05000039	          0.05833050	          0.05871345	          0.05000079	          0.06894261	          0.12691771	          0.05798510	          0.05525673	          0.24839498	          0.05251560	          0.05000054	          0.05000004	          0.13507963	          0.13960268	          0.11571608	          0.05871290	          0.05871290	          0.05871285	          0.05000000	          0.05000126	          0.05026157	          0.41642159	          0.24940321	          0.15256607	          0.29042996	          0.57442611	          0.05000003	          0.05000007	          0.10844138	          0.11163142	          0.28336808	          0.08216670	          0.05000009	          0.30478687	          0.18993954	          0.08596713	          0.05000151	          0.05000015	          0.05000010	          0.06894413	          0.08443546	          0.13030068	          0.05065404	          0.05000075	          0.05000184	          0.05000066	          0.25892805	          0.05822110	          0.05000034	          0.05000131	          0.05000093	          0.05000086	          0.28735279	          0.49455353	          0.05000008	          0.05000020	          0.05000003	          0.18699551	          0.09934543	          0.06710352	          0.09591952	          0.27393772	          0.34662425	          0.23088989	          0.19082808	          0.18525111	          0.25458381	          0.05000000	          0.09289564	          0.15841355	          0.05000007	          0.05000001	          0.05000005	          0.05000000	          0.05000006	          0.05000006	
          0.53322694	         -2.91051062	          1.38683163	         -5.69624059	          0.66940330	          0.85814048	          0.00112791	         30.57428410	          2.76193733	         -1.81743532	        -17.36467849	         -1.43564648	          7.97040410	        -18.95159481	        -11.90287606	         -1.49292433	         -1.82440687	         -1.40980285	         13.26746303	         -0.12290427	         -5.29124035	          0.75347047	         27.83682339	         -0.82883666	          0.14069995	          1.71100335	         -9.43253354	        -13.59597661	          6.27478644	          3.68985122	        -13.49639766	         14.87032050	         18.84778832	         34.43742707	         86.51662706	         86.51662706	          0.05000003	          0.05000013	          0.07040926	          0.05000006	          0.05000011	          0.05000013	          0.05000003	          0.05000008	          0.08168060	          0.05000008	          0.05008522	          0.09461429	          0.12504558	          0.33675867	          0.24605515	          0.10885618	          0.05000020	          0.05000086	          0.05000069	          0.05871266	          0.05871301	          0.12840008	          0.05000013	          0.06884320	          0.49239203	          0.08925546	          0.06076758	          0.06894400	          0.25370631	          0.24575461	          0.21117064	          0.05000004	          0.05000004	          0.05000000	          0.05000067	          0.05871216	          0.05000014	          0.54972136	          0.21239234	          0.12992561	          0.41849121	          0.59760189	          0.07340099	          0.05000000	          0.09234892	          0.09506557	          0.24131691	          0.06997336	          0.05000012	          0.25955725	          0.16175296	          0.07320982	          0.05000182	          0.05000025	          0.05000046	          0.05871299	          0.07190553	          0.21360024	          0.15941630	          0.09850520	          0.05000143	          0.12627156	          0.22050380	          0.10023398	          0.05000134	          0.05000072	          0.05000041	          0.05000032	          0.24471029	          0.42466815	          0.05000011	          0.05000215	          0.05871285	          0.15924582	          0.08460298	          0.16342591	          0.15004692	          0.23328597	          0.29518598	          0.19662634	          0.16250963	          0.15776034	          0.21680418	          0.06174696	          0.07911016	          0.13490536	          0.05000006	          0.09057736	          0.05000025	          0.05000001	          0.06894425	          0.06241870	
          0.54368237	         -2.89527711	          1.50679311	         -5.93388797	          0.68556950	          0.85693714	          0.00096548	         29.78729413	          3.13156604	         -1.50317523	        -17.01559107	         -1.72262278	          7.73081760	        -19.34185729	        -14.09023041	         -1.65565459	         -2.78268257	         -2.11749443	         14.15945204	         -0.28863420	         -5.67992452	          0.87161650	         28.23214990	         -0.61081954	         -0.12725719	          1.76126534	        -10.35782543	        -13.60744453	          6.13008489	          3.37474709	        -13.53069337	         15.15953631	         18.69265876	         35.32961028	         86.51662706	         86.51662706	          0.30457230	          0.30498436	          0.37539416	          0.05007167	          0.05000026	          0.33975236	          0.08757651	          0.05000040	          0.10319113	          0.05000003	          0.05000015	          0.08057472	          0.22819336	          0.28678453	          0.21919660	          0.15658591	          0.05000012	          0.06894416	          0.11106366	          0.05000006	          0.05000017	          0.14339426	          0.05794038	          0.05862706	          0.41932216	          0.07601021	          0.21825802	          0.05871287	          0.23417272	          0.24210022	          0.20339994	          0.05871283	          0.05871281	          0.05871285	          0.05000004	          0.05000025	          0.05867862	          0.52151704	          0.18087380	          0.11064495	          0.35638814	          0.58120088	          0.06250845	          0.05000000	          0.08614118	          0.08095805	          0.32412161	          0.05958947	          0.05000003	          0.22103965	          0.13774921	          0.06234566	          0.06564999	          0.05000022	          0.05000019	          0.05000014	          0.06123499	          0.18853657	          0.32498657	          0.08388764	          0.05871369	          0.10753386	          0.22381635	          0.08536031	          0.05000079	          0.05000231	          0.05000361	          0.05871183	          0.20839586	          0.40081511	          0.05000024	          0.05000024	          0.05000003	          0.13561411	          0.07205787	          0.13917395	          0.12778037	          0.19866685	          0.25138104	          0.16744743	          0.13839357	          0.13434910	          0.18463096	          0.16590771	          0.16081657	          0.16345482	          0.05001517	          0.21304190	          0.15696362	          0.06909690	          0.05871308	          0.05871293	
          0.55413780	         -2.87891514	          1.63196741	         -6.14255254	          0.70173285	          0.85566097	          0.00080399	         28.85111032	          3.48016682	         -1.18072765	        -16.55326078	         -1.99447516	          7.48639278	        -19.67655829	        -16.47463731	         -1.59509638	         -3.71854962	         -2.86666282	         14.96031320	         -0.42662443	         -5.85783119	          1.03271467	         27.83016952	         -0.39671269	         -0.40440306	          1.80071107	        -11.22557228	        -13.62597484	          6.08285055	          3.03654930	        -13.57039220	         15.41263327	         18.48622071	         36.18872060	         86.51662706	         86.51662706	          0.39749542	          0.45350671	          0.50842072	          0.24432863	          0.32649234	          0.33041802	          0.07458039	          0.10571432	          0.08787785	          0.06894405	          0.05000027	          0.06861763	          0.19432998	          0.24422643	          0.19743700	          0.16652306	          0.05000011	          0.05871313	          0.09458257	          0.27578853	          0.20192404	          0.16576788	          0.05000002	          0.05000002	          0.35709571	          0.06473072	          0.18586984	          0.05000002	          0.30084018	          0.31696859	          0.26448247	          0.05000000	          0.05000002	          0.05000000	          0.10826343	          0.05000034	          0.05000008	          0.62128598	          0.15403254	          0.09422549	          0.37421558	          0.56803145	          0.34583394	          0.06507553	          0.07335803	          0.06894406	          0.27602271	          0.05074655	          0.05000001	          0.18823817	          0.11730758	          0.05309375	          0.09083585	          0.05000015	          0.05000015	          0.05000012	          0.05871183	          0.20945487	          0.27675933	          0.07143897	          0.05000089	          0.09157627	          0.24877715	          0.07269328	          0.05000014	          0.05000038	          0.05000020	          0.05000012	          0.17747040	          0.36472669	          0.05000001	          0.05000014	          0.05000010	          0.11548934	          0.06136469	          0.11852089	          0.10881810	          0.16918513	          0.21407666	          0.14259860	          0.11785631	          0.11441208	          0.15723223	          0.20560232	          0.13695190	          0.13919854	          0.19794603	          0.24197479	          0.13367079	          0.10926976	          0.05000019	          0.05000007	
